<?xml version="1.0" standalone="no"?>
<!DOCTYPE svg PUBLIC "-//W3C//DTD SVG 1.1//EN" "http://www.w3.org/Graphics/SVG/1.1/DTD/svg11.dtd" >
<svg xmlns="http://www.w3.org/2000/svg">
  <metadata>Created by iconfont</metadata>
  <defs>
  <font id="iconfont" horiz-adv-x="1024">
    <font-face
      font-family="iconfont"
      font-weight="400"
      font-stretch="normal"
      units-per-em="1024"
      ascent="896"
      descent="-128"
    />
      <missing-glyph />
      
      <glyph glyph-name="xianxing_guanbi_2" unicode="&#59186;" d="M766.563 692.553c-17.036 14.067-42.246 11.663-56.313-5.37s-11.663-42.246 5.37-56.313C789.581 569.787 832 479.806 832 384c0-176.448-143.552-320-320-320S192 207.552 192 384c0 101.877 49.234 198.601 131.701 258.733 17.85 13.016 21.769 38.038 8.753 55.888-13.018 17.85-38.037 21.769-55.888 8.753-49.867-36.363-91.243-84.457-119.653-139.083C127.53 511.797 112 448.07 112 384c0-53.982 10.581-106.371 31.45-155.71 20.148-47.636 48.984-90.41 85.707-127.132s79.496-65.559 127.133-85.707C405.63-5.418 458.018-16 512-16s106.37 10.582 155.71 31.45c47.637 20.148 90.41 48.984 127.133 85.707s65.559 79.496 85.707 127.132C901.419 277.629 912 330.018 912 384c0 119.756-53.01 232.219-145.437 308.553zM512 404.597c22 0 40 18 40 40v304c0 22-18 40-40 40s-40-18-40-40v-304c0-22.001 18-40 40-40z"  horiz-adv-x="1024" />
      
      <glyph glyph-name="mianxing_cuowu_1" unicode="&#59159;" d="M512 832C264.573 832 64 631.427 64 384s200.573-448 448-448 448 200.585 448 448S759.415 832 512 832z m158.392-549.823c15.556-15.556 15.556-41.012 0-56.569-15.557-15.556-41.012-15.556-56.569 0L512 327.432 410.177 225.608c-15.557-15.556-41.012-15.556-56.568 0-15.556 15.556-15.556 41.012 0 56.569L455.432 384 353.608 485.823c-15.556 15.556-15.556 41.012 0 56.568 15.556 15.556 41.012 15.556 56.568 0L512 440.569l101.823 101.823c15.557 15.556 41.012 15.556 56.569 0 15.556-15.556 15.556-41.012 0-56.568L568.568 384l101.824-101.823z"  horiz-adv-x="1024" />
      
      <glyph glyph-name="xianxing_gengduo_2" unicode="&#59160;" d="M512 624c44.183 0 80 35.817 80 80s-35.817 80-80 80-80-35.817-80-80 35.817-80 80-80z m0-160c-44.183 0-80-35.817-80-80s35.817-80 80-80 80 35.817 80 80-35.817 80-80 80z m0-320c-44.183 0-80-35.817-80-80s35.817-80 80-80 80 35.817 80 80-35.817 80-80 80z"  horiz-adv-x="1024" />
      
      <glyph glyph-name="mianxing_bianji_1" unicode="&#59161;" d="M215.296 189.803l102 0.081v0.367l394.532 395.16-101.904 101.742-394.716-395.344 0.007-0.007 0.081-101.999z m584.24 483.001c12.497 12.497 12.497 32.758 0 45.255l-56.568 56.568c-12.497 12.497-32.758 12.497-45.255 0l-53.65-53.65 101.823-101.823 53.65 53.65zM864 80H160c-26.4 0-48-21.6-48-48s21.6-48 48-48h704c26.4 0 48 21.6 48 48s-21.6 48-48 48z"  horiz-adv-x="1024" />
      
      <glyph glyph-name="mianxing_chenggong_1" unicode="&#59162;" d="M512 832C264.573 832 64 631.427 64 384s200.573-448 448-448 448 200.573 448 448S759.415 832 512 832z m265.867-375.272L511.843 190.704a39.642 39.642 0 0 0-10.529-7.536 40.206 40.206 0 0 0-15.696-4.076c-0.686-0.035-1.372-0.055-2.059-0.055-10.253 0-20.506 3.889-28.284 11.667L310.133 335.846c-15.557 15.556-15.557 41.012 0 56.568 15.556 15.556 41.012 15.556 56.568 0l116.857-116.858 237.74 237.74c15.557 15.556 41.013 15.556 56.568 0 15.558-15.556 15.558-41.012 0.001-56.568z"  horiz-adv-x="1024" />
      
      <glyph glyph-name="xianxing_zhongzhi_1" unicode="&#59163;" d="M506 544c-22 0-40-18-40-40v-176c0-22 18-40 40-40h176c22 0 40 18 40 40s-18 40-40 40H546V504c0 22-18 40-40 40z m399.922-1.177c-20.551 48.589-49.964 92.218-87.423 129.677-37.458 37.458-81.088 66.871-129.676 87.423C638.5 781.208 585.064 792 530 792s-108.5-10.792-158.823-32.077c-48.588-20.552-92.218-49.965-129.676-87.423-37.458-37.459-66.872-81.088-87.423-129.677-15.562-36.792-25.508-75.25-29.735-114.789l-44.544-0.042c-12.771-0.012-20.243-14.396-12.909-24.852l80.295-114.475c6.293-8.972 19.59-8.959 25.866 0.024l80.077 114.628c7.314 10.47-0.185 24.84-12.957 24.828l-43.274-0.042C218.561 592.608 359.677 720 530 720c185.271 0 336-150.729 336-336S715.271 48 530 48c-63.07 0-124.527 17.564-177.728 50.794-16.863 10.533-39.072 5.401-49.604-11.462s-5.401-39.071 11.462-49.604C378.781-2.655 453.428-24 530-24c55.064 0 108.5 10.792 158.823 32.077 48.588 20.552 92.218 49.965 129.676 87.423 37.458 37.459 66.872 81.088 87.423 129.677C927.208 275.5 938 328.937 938 384s-10.792 108.5-32.078 158.823z"  horiz-adv-x="1024" />
      
      <glyph glyph-name="xianxing_qiyong_1" unicode="&#59164;" d="M512 832C264.576 832 64 631.424 64 384s200.576-448 448-448 448 200.576 448 448S759.424 832 512 832z m271.529-719.529c-35.287-35.286-76.359-62.983-122.078-82.321C614.15 10.144 563.868 0 512 0s-102.15 10.144-149.451 30.15c-45.719 19.337-86.791 47.034-122.078 82.321-35.286 35.286-62.983 76.36-82.32 122.079C138.144 281.85 128 332.132 128 384s10.144 102.15 30.15 149.45c19.337 45.719 47.034 86.792 82.32 122.079 35.287 35.286 76.359 62.983 122.078 82.321C409.85 757.856 460.132 768 512 768s102.15-10.144 149.451-30.15c45.719-19.337 86.791-47.034 122.078-82.321 35.286-35.286 62.983-76.36 82.32-122.079C885.856 486.15 896 435.868 896 384s-10.144-102.15-30.15-149.45c-19.337-45.719-47.035-86.793-82.321-122.079z m-105.49 297.664L446.55 572.178c-21.144 14.801-50.197-0.326-50.197-26.135v-324.084c0-25.81 29.053-40.936 50.197-26.135l231.489 162.042c18.144 12.699 18.144 39.569 0 52.269z"  horiz-adv-x="1024" />
      
      <glyph glyph-name="xianxing_jinru_1" unicode="&#59165;" d="M944.933 333.282l-256.511 256.51c-15.613 15.613-40.924 15.622-56.548 0.02-15.64-15.618-15.649-40.96-0.02-56.589L823.078 342H103.972C81.896 342 64 324.104 64 302.028v-0.057C64 279.896 81.896 262 103.972 262h816.057C942.104 262 960 279.896 960 301.972v0.057c0 12.655-5.888 23.929-15.067 31.253z"  horiz-adv-x="1024" />
      
      <glyph glyph-name="xianxing_riqi_1" unicode="&#59166;" d="M848 704H720V816h-64v-112H368V816h-64v-112H176c-35.347 0-64-28.653-64-64v-592c0-35.346 28.653-64 64-64h672c35.347 0 64 28.654 64 64V640c0 35.347-28.653 64-64 64z m0-656H176V448h672v-400z m0 464H176V640h128v-48h64v48h288v-48h64v48h128v-128z"  horiz-adv-x="1024" />
      
      <glyph glyph-name="xianxing_guanbi_1" unicode="&#59167;" d="M900.341 52.235L568.565 384.078l331.619 331.681c15.55 15.553 15.55 41.004 0 56.558-15.556 15.559-41.012 15.559-56.568 0l-331.608-331.67L180.39 772.332c-15.556 15.56-41.012 15.56-56.568 0-15.55-15.553-15.55-41.004 0-56.557l331.629-331.696L123.66 52.225c-15.551-15.553-15.551-41.004 0-56.557 15.556-15.559 41.012-15.559 56.568 0l331.78 331.842 331.765-331.832c15.556-15.56 41.012-15.56 56.568 0 15.55 15.553 15.55 41.004 0 56.557z"  horiz-adv-x="1024" />
      
      <glyph glyph-name="xianxing_biaoqian" unicode="&#59168;" d="M772.96 776H251.04c-50.111 0-90.88-40.769-90.88-90.88v-618.157c0-32.334 16.583-61.52 44.359-78.07 27.542-16.412 60.773-17.232 89.055-2.242L506.87 89.618a12.115 12.115 0 0 0 10.261 0L730.426-13.35c13.452-7.129 28.023-10.683 42.569-10.683 16.037 0 32.043 4.318 46.486 12.925 27.776 16.551 44.359 45.736 44.359 78.07V685.12c0 50.111-40.769 90.88-90.88 90.88z m26.88-709.037c0-13.785-9.175-20.741-13.12-23.092-3.944-2.351-14.427-7.111-26.552-0.549l-0.651 0.353-214.694 103.641-0.207 0.1c-10.364 4.912-21.49 7.368-32.616 7.368s-22.252-2.456-32.616-7.368L265.15 43.997l-1.318-0.675c-12.124-6.561-22.608-1.802-26.552 0.549-3.945 2.351-13.12 9.307-13.12 23.092V685.12c0 14.821 12.058 26.88 26.88 26.88h521.92c14.822 0 26.88-12.059 26.88-26.88v-618.157zM544 424H288c-17.6 0-32-14.4-32-32s14.4-32 32-32h256c17.6 0 32 14.4 32 32s-14.4 32-32 32z m192 160H288c-17.6 0-32-14.4-32-32s14.4-32 32-32h448c17.6 0 32 14.4 32 32s-14.4 32-32 32z"  horiz-adv-x="1024" />
      
      <glyph glyph-name="xianxing_sousuo_1" unicode="&#59169;" d="M902.627 38.627L734.5 206.754C785.384 267.794 816 346.32 816 432c0 194.404-157.596 352-352 352S112 626.404 112 432s157.596-352 352-352c85.68 0 164.206 30.616 225.246 81.5l168.127-168.127c12.497-12.497 32.758-12.497 45.255 0 12.496 12.496 12.496 32.758-0.001 45.254z m-234.98 189.726c-26.47-26.47-57.276-47.245-91.564-61.747C540.618 151.606 502.908 144 464 144s-76.618 7.606-112.083 22.606c-34.287 14.502-65.094 35.277-91.564 61.747s-47.245 57.277-61.747 91.564C183.606 355.382 176 393.092 176 432s7.606 76.618 22.606 112.083c14.502 34.287 35.277 65.094 61.747 91.564s57.276 47.245 91.564 61.747C387.382 712.394 425.092 720 464 720s76.618-7.606 112.083-22.606c34.287-14.502 65.094-35.277 91.564-61.747s47.245-57.277 61.747-91.564C744.394 508.618 752 470.908 752 432s-7.606-76.618-22.606-112.083c-14.502-34.287-35.277-65.094-61.747-91.564z"  horiz-adv-x="1024" />
      
      <glyph glyph-name="xianxing_caidan_2" unicode="&#59170;" d="M399.652 784.174h-224c-35.347 0-64-28.654-64-64v-224c0-35.346 28.653-64 64-64h224c35.346 0 64 28.654 64 64v224c0 35.346-28.654 64-64 64z m0-288h-224v224h224v-224z m448 288h-224c-35.347 0-64-28.654-64-64v-224c0-35.346 28.653-64 64-64h224c35.346 0 64 28.654 64 64v224c0 35.346-28.654 64-64 64z m0-288h-224v224h224v-224z m-448-160h-224c-35.347 0-64-28.654-64-64v-224c0-35.346 28.653-64 64-64h224c35.346 0 64 28.654 64 64v224c0 35.346-28.654 64-64 64z m0-288h-224v224h224v-224z m448 288h-224c-35.347 0-64-28.654-64-64v-224c0-35.346 28.653-64 64-64h224c35.346 0 64 28.654 64 64v224c0 35.346-28.654 64-64 64z m0-288h-224v224h224v-224z"  horiz-adv-x="1024" />
      
      <glyph glyph-name="xianxing_shouqi_1" unicode="&#59171;" d="M816 632H507.567l-24.102 65.259C469.606 734.786 433.416 760 393.411 760H208c-52.935 0-96-43.065-96-96v-560c0-52.935 43.065-96 96-96h608c52.935 0 96 43.065 96 96V536c0 52.935-43.065 96-96 96z m32-528c0-17.645-14.355-32-32-32H208c-17.645 0-32 14.355-32 32V664c0 17.645 14.355 32 32 32h185.411c13.335 0 25.398-8.405 30.018-20.914l27.963-75.715C458.322 580.607 476.417 568 496.42 568H816c17.645 0 32-14.355 32-32v-432z"  horiz-adv-x="1024" />
      
      <glyph glyph-name="xianxing_shang_1" unicode="&#59172;" d="M949.654 87.682L547.557 601.301c-4.885 6.24-10.932 10.955-17.461 14.044-5.589 2.96-11.794 4.348-18.096 4.271-6.301 0.076-12.506-1.312-18.096-4.271-6.529-3.089-12.576-7.804-17.461-14.044L74.346 87.682c-15.186-19.397-13.421-46.086 3.94-59.613 17.362-13.527 43.748-8.768 58.934 10.63L512 517.424l374.78-478.725c15.186-19.398 41.572-24.157 58.934-10.63 17.362 13.527 19.126 40.216 3.94 59.613z"  horiz-adv-x="1024" />
      
      <glyph glyph-name="xianxing_tianjia_3" unicode="&#59173;" d="M911.652 344.174h-360v-360h-80v360h-360v80h360v360h80v-360h360z"  horiz-adv-x="1024" />
      
      <glyph glyph-name="xianxing_jiankong_1" unicode="&#59174;" d="M512 736C265.293 736 64.001 452.964 64.001 384.057 64.001 315.153 265.174 32 512 32c246.82 0 447.999 283.035 447.999 352.057C959.999 453.078 758.707 736 512 736z m264.526-515.11c-39.852-37.755-81.661-67.701-124.268-89.008C604.646 108.072 557.457 96 512 96c-45.448 0-92.631 12.074-140.237 35.886-42.601 21.308-84.407 51.258-124.261 89.018-33.348 31.596-64.561 68.395-87.892 103.619-20.636 31.156-28.911 51.7-31.147 59.531 2.238 7.83 10.52 28.368 31.164 59.514 23.339 35.21 54.563 71.996 87.918 103.583 39.859 37.744 81.67 67.682 124.268 88.981C419.411 659.932 466.577 672 512 672c45.432 0 92.606-12.067 140.211-35.866 42.604-21.298 84.416-51.233 124.273-88.973 33.359-31.586 64.58-68.371 87.909-103.576 20.656-31.171 28.925-51.719 31.149-59.532-2.223-7.815-10.486-28.369-31.133-59.55-23.32-35.22-54.532-72.017-87.883-103.613zM512 544c-88.365 0-160-71.634-160-160s71.635-160 160-160 160 71.634 160 160-71.635 160-160 160z"  horiz-adv-x="1024" />
      
      <glyph glyph-name="xianxing_fabu_1" unicode="&#59175;" d="M872.045 777.182a37.686 37.686 0 0 1-39.02 2.573L161.381 431.867c-21.63-11.204-35.19-33.296-35.389-57.654s13-46.669 34.444-58.224l127.816-68.87c15.559-8.383 34.967-2.566 43.35 12.992 8.383 15.558 2.566 34.967-12.992 43.35l-127.816 68.87c-0.436 0.234-0.812 0.438-0.805 1.359 0.008 0.923 0.387 1.119 0.827 1.347l555.832 287.902c-8.272-10.067-16.789-20.438-25.487-31.028-72.198-87.908-154.029-187.546-200.857-241.538-49.346-56.875-79.663-95.33-98.524-135.604-18.713-39.955-26.004-80.361-26.004-144.113V16c0-17.673 14.327-32 32-32 17.673 0 32 14.327 32 32v94.656c0 102.618 19.232 134.463 108.872 237.779 47.396 54.646 129.517 154.637 201.971 242.856a88331.062 88331.062 0 0 0 40.306 49.054l-68.044-550.903c-0.038-0.31-0.096-0.776-0.781-1.153-0.685-0.375-1.111-0.174-1.393-0.042l-115.239 54.547c-15.973 7.558-35.053 0.74-42.614-15.233-7.562-15.974-0.741-35.053 15.233-42.614l115.24-54.547a65.507 65.507 0 0 1 28.023-6.279c10.912 0.001 21.81 2.709 31.597 8.093 18.376 10.108 30.882 28.569 33.453 49.384l81.512 659.946a37.691 37.691 0 0 1-15.867 35.638z"  horiz-adv-x="1024" />
      
      <glyph glyph-name="xianxing_shijian_1" unicode="&#59176;" d="M512 832C264.577 832 64 631.424 64 384s200.577-448 448-448 448 200.576 448 448S759.423 832 512 832z m271.529-719.529c-35.287-35.287-76.359-62.983-122.078-82.321C614.15 10.144 563.868 0 512 0s-102.15 10.144-149.451 30.15c-45.719 19.337-86.792 47.034-122.078 82.321s-62.983 76.359-82.321 122.078C138.144 281.85 128 332.132 128 384s10.144 102.15 30.15 149.45c19.337 45.719 47.034 86.792 82.321 122.079 35.287 35.286 76.359 62.984 122.078 82.321C409.85 757.856 460.132 768 512 768s102.15-10.144 149.451-30.15c45.719-19.337 86.792-47.034 122.078-82.321 35.287-35.287 62.983-76.36 82.321-122.079C885.856 486.15 896 435.868 896 384s-10.144-102.15-30.15-149.451c-19.338-45.718-47.035-86.791-82.321-122.078z m-79.452 174.094L543.975 379V596.045c0 22-18 40-40 40s-40-18-40-40v-240c0-0.15 0.01-0.298 0.012-0.447a40.492 40.492 0 0 1 0.157-3.121c0.024-0.269 0.047-0.537 0.077-0.804 0.047-0.43 0.104-0.859 0.165-1.288 0.028-0.198 0.054-0.397 0.085-0.594 0.088-0.561 0.19-1.119 0.301-1.675l0.027-0.141c2.213-10.851 8.858-20.753 19.145-26.692l180.133-104c19.053-11 43.641-4.412 54.641 14.641s4.412 43.641-14.641 54.641z"  horiz-adv-x="1024" />
      
      <glyph glyph-name="xianxing_shangchuan_1" unicode="&#59177;" d="M534.563 478.265c-12.497 12.497-32.758 12.497-45.255 0l-90.51-90.51c-12.497-12.497-12.497-32.758 0-45.254 12.497-12.497 32.758-12.497 45.255 0L480 378.448V200c0-17.673 14.327-32 32-32 17.673 0 32 14.327 32 32V378.318l35.817-35.817c12.497-12.497 32.758-12.497 45.255 0s12.497 32.758 0 45.254l-90.509 90.51zM799.087 446.978C787.379 595.292 663.323 712 512 712c-151.323 0-275.379-116.708-287.087-265.022C131.919 419.731 64 333.804 64 232c0-123.712 100.288-224 224-224h448c123.712 0 224 100.288 224 224 0 101.804-67.919 187.731-160.913 214.978z m50.05-328.115C818.917 88.643 778.738 72 736 72H288c-42.738 0-82.917 16.643-113.137 46.863S128 189.262 128 232c0 35.285 11.248 68.726 32.526 96.707 20.644 27.146 49.9 47.336 82.381 56.853l42.334 12.404 3.472 43.978c4.417 55.952 29.608 107.896 70.933 146.264C401.177 626.765 455.284 648 512 648c56.716 0 110.822-21.235 152.353-59.795 41.325-38.368 66.516-90.313 70.933-146.264l3.472-43.978 42.334-12.404c32.481-9.517 61.738-29.707 82.381-56.853C884.752 300.726 896 267.285 896 232c0-42.738-16.643-82.917-46.863-113.137z"  horiz-adv-x="1024" />
      
      <glyph glyph-name="xianxing_gengduo_1" unicode="&#59178;" d="M192 464c-44.183 0-80-35.817-80-80s35.817-80 80-80 80 35.817 80 80-35.817 80-80 80z m320 0c-44.183 0-80-35.817-80-80s35.817-80 80-80 80 35.817 80 80-35.817 80-80 80z m320 0c-44.183 0-80-35.817-80-80s35.817-80 80-80 80 35.817 80 80-35.817 80-80 80z"  horiz-adv-x="1024" />
      
      <glyph glyph-name="xianxing_tianjia_1" unicode="&#59179;" d="M512 832C264.576 832 64 631.424 64 384s200.576-448 448-448 448 200.576 448 448S759.424 832 512 832z m271.529-719.529c-35.286-35.287-76.36-62.983-122.079-82.321C614.15 10.144 563.868 0 512 0s-102.15 10.144-149.45 30.15c-45.719 19.337-86.792 47.034-122.079 82.321-35.286 35.286-62.983 76.359-82.321 122.078C138.144 281.85 128 332.132 128 384s10.144 102.15 30.15 149.45c19.337 45.719 47.034 86.792 82.321 122.079s76.36 62.984 122.079 82.321C409.85 757.856 460.132 768 512 768s102.15-10.144 149.45-30.15c45.719-19.337 86.792-47.034 122.079-82.321s62.983-76.36 82.321-122.079C885.856 486.15 896 435.868 896 384s-10.144-102.15-30.15-149.451c-19.338-45.718-47.035-86.792-82.321-122.078zM672 416H544V544c0 17.673-14.327 32-32 32s-32-14.327-32-32v-128H352c-17.673 0-32-14.327-32-32s14.327-32 32-32h128v-128c0-17.673 14.327-32 32-32s32 14.327 32 32V352h128c17.673 0 32 14.327 32 32s-14.327 32-32 32z"  horiz-adv-x="1024" />
      
      <glyph glyph-name="xianxing_tishiyu_1" unicode="&#59180;" d="M784 784H240c-52.935 0-96-43.065-96-96v-608c0-52.935 43.065-96 96-96h544c52.935 0 96 43.065 96 96V688c0 52.935-43.065 96-96 96z m32-704c0-17.645-14.355-32-32-32H240c-17.645 0-32 14.355-32 32V688c0 17.645 14.355 32 32 32h544c17.645 0 32-14.355 32-32v-608zM704 256H320c-17.6 0-32-14.4-32-32s14.4-32 32-32h384c17.6 0 32 14.4 32 32s-14.4 32-32 32z m0 160H320c-17.6 0-32-14.4-32-32s14.4-32 32-32h384c17.6 0 32 14.4 32 32s-14.4 32-32 32z m0 160H320c-17.6 0-32-14.4-32-32s14.4-32 32-32h384c17.6 0 32 14.4 32 32s-14.4 32-32 32z"  horiz-adv-x="1024" />
      
      <glyph glyph-name="xianxing_shanchu_1" unicode="&#59181;" d="M880.25 641H720v80c0 35.346-28.654 64-64 64H368c-35.346 0-64-28.654-64-64v-80H144.25c-17.673 0-32-14.327-32-32s14.327-32 32-32h68.858l40.524-533.844c2.533-33.371 30.35-59.156 63.816-59.156H707.05c33.467 0 61.283 25.785 63.816 59.156L811.392 577h68.858c17.673 0 32 14.327 32 32s-14.327 32-32 32zM368 721h288v-80H368v80z m339.051-673H317.449l-40.156 529h469.914l-40.156-529z"  horiz-adv-x="1024" />
      
      <glyph glyph-name="xianxing_xia_1" unicode="&#59182;" d="M945.714 611.931c-17.362 13.527-43.748 8.768-58.934-10.63L512 122.576 137.22 601.301c-15.186 19.398-41.572 24.157-58.934 10.63-17.361-13.526-19.125-40.216-3.94-59.613l402.098-513.619c4.885-6.24 10.932-10.955 17.461-14.044 5.589-2.96 11.794-4.347 18.096-4.271 6.301-0.076 12.506 1.311 18.096 4.271 6.529 3.089 12.576 7.804 17.461 14.044l402.098 513.619c15.184 19.397 13.42 46.086-3.942 59.613z"  horiz-adv-x="1024" />
      
      <glyph glyph-name="xianxing_shezhi_1" unicode="&#59183;" d="M944.09 505.07c-8.439 30.01-37.26 50.25-68.53 48.13-14.1-0.93-27.729 6.22-34.699 18.24l-0.101 0.17c-7.05 11.98-6.56 26.62 1.271 38.22l0.06 0.09c17.351 25.9 14.08 60.82-7.72 82.98C776.52 751.95 703.25 793.83 622.52 813.99c-14.659 3.68-30.31 2.24-44.069-4.06-13.76-6.31-25.07-17.21-31.83-30.71l-0.05-0.11c-6.16-12.39-19.21-20.38-33.28-20.38h-0.49c-14.069 0-27.12 7.99-33.27 20.38l-0.061 0.11c-6.76 13.5-18.08 24.4-31.87 30.69-13.67 6.24-29.25 7.7-43.859 4.12l-0.101-0.021c-80.6-20.03-153.909-61.91-212.05-121.15-10.58-10.85-17.189-25.09-18.59-40.12-1.41-15.07 2.46-30.3 10.91-42.91l0.1-0.15c7.7-11.36 8.2-26.28 1.26-38.02l-0.159-0.27c-7.021-12.15-20.271-19.11-34.601-18.19-31.399 2.25-60.16-17.98-68.51-48.15-11.28-39.26-17-79.97-17-121.02 0-41.08 5.7-81.84 16.95-121.17 4.17-14.56 13.3-27.37 25.729-36.07 12.351-8.64 27.45-12.88 42.551-11.94 14.119 0.88 27.81-6.34 34.89-18.44 7.04-12.02 6.57-26.63-1.22-38.15l-0.091-0.12c-17.35-25.9-14.079-60.82 7.73-82.98C249.5 16 322.81-25.88 403.48-45.93c14.64-3.67 30.26-2.26 43.989 3.98 13.8 6.28 25.141 17.18 31.91 30.7l0.05 0.1c6.13 12.36 19.08 20.3 33.04 20.3h0.48c14.39 0 27.26-7.83 33.58-20.4 6.76-13.5 18.08-24.4 31.87-30.69 8.77-4.01 18.33-6.04 27.909-6.04 5.351 0 10.71 0.63 15.94 1.91l0.11 0.03c80.6 20.03 153.909 61.9 212.04 121.15 10.59 10.84 17.199 25.09 18.6 40.12 1.41 15.06-2.46 30.3-10.91 42.91l-0.1 0.14c-7.78 11.47-8.24 26.04-1.21 38.02l0.18 0.32c6.87 12.01 20.4 19.14 34.5 18.15l0.42-0.03c15-0.84 30.03 3.39 42.311 11.94 12.51 8.7 21.689 21.52 25.859 36.07C955.4 302.28 961.1 343.08 961 383.94c0 41.1-5.69 81.85-16.91 121.13z m-61.56-224.68c-0.311-1.06-1.561-1.81-2.94-1.75-38.27 2.54-75.14-17.09-94.1-50.1-9.48-16.23-14.181-34.7-13.59-53.45 0.6-18.81 6.489-36.99 17.04-52.61 0.56-0.86 0.439-1.88-0.271-2.6-49.77-50.72-112.59-86.61-181.66-103.79-1.33-0.31-2.729 0.25-3.279 1.35-17.24 34.33-51.971 55.66-90.66 55.71h-0.59c-38.061 0-73.45-21.82-90.33-55.76-0.53-1.02-1.86-1.56-3.17-1.23C349.76 33.37 286.92 69.25 237.2 120c-0.69 0.71-0.78 1.66-0.23 2.5 21.681 32.11 22.971 72.82 3.38 106.24-9.479 16.22-23.31 29.47-39.97 38.31a101.838 101.838 0 0 1-54.149 11.67c-1.301-0.07-2.44 0.64-2.75 1.75C133.87 314.06 129 348.9 129 384.03c0 35.12 4.9 69.95 14.55 103.51l0.12 0.42c0.25 0.89 1.21 1.48 2.3 1.4l0.221-0.02c18.88-1.25 37.659 2.74 54.3 11.53 16.7 8.82 30.52 22.09 39.96 38.37 19.359 32.88 18.03 74.55-3.391 106.24-0.56 0.86-0.439 1.88 0.271 2.61C287.1 698.81 349.92 734.7 419 751.88c1.31 0.31 2.7-0.25 3.24-1.31 8.38-16.84 21.319-30.96 37.43-40.85a101.513 101.513 0 0 1 53.13-14.99h0.49c18.78 0 37.14 5.18 53.13 14.99 16.11 9.89 29.05 24.021 37.43 40.85 0.551 1.07 1.881 1.65 3.131 1.34 69.279-17.31 132.1-53.2 181.72-103.86 0.689-0.7 0.78-1.65 0.24-2.48-10.561-15.67-16.46-33.88-17.07-52.67-0.61-18.83 4.12-37.39 13.689-53.68 18-30.93 51.851-50.1 87.641-50.09 2.21 0 4.43 0.07 6.649 0.22 1.23 0.07 2.351-0.61 2.631-1.6l0.039-0.16C892.13 454 897 419.12 897 383.86c0.08-34.91-4.78-69.71-14.47-103.47zM648.54 519.21c-17.61 17.47-38.12 31.19-60.95 40.78-23.66 9.93-48.74 14.97-74.54 14.97-105.87 0-192-85.65-192-190.93s86.13-190.93 192-190.93 192 85.65 192 190.93v0.06c-0.03 25.8-5.16 50.86-15.26 74.49-9.72 22.73-23.6 43.13-41.25 60.63zM513.05 257.1c-70.55 0-128 56.95-128 126.93 0 69.99 57.45 126.93 128 126.93s127.931-56.88 128-126.93c0-69.98-57.45-126.93-128-126.93z"  horiz-adv-x="1024" />
      
      <glyph glyph-name="xianxing_tupian_1" unicode="&#59184;" d="M864 768H160a96.108 96.108 0 0 1-96-96v-576a96.108 96.108 0 0 1 96-96h704a96.108 96.108 0 0 1 96 96V672a96.108 96.108 0 0 1-96 96z m32-672a32.036 32.036 0 0 0-32-32H160a32.036 32.036 0 0 0-32 32V672a32.036 32.036 0 0 0 32 32h704a32.036 32.036 0 0 0 32-32zM712.755 396.562a33.369 33.369 0 0 1-46.255 0.708L545.773 276.543 343.755 478.562a33.37 33.37 0 0 1-46.255 0.708l-96.257-96.258a32 32 0 1 1 45.257-45.255l73.776 73.777 265-265a32 32 0 0 1 45.255 45.255l-39.5 39.5 98.245 98.245 88-88a32 32 0 0 1 45.255 45.255z"  horiz-adv-x="1024" />
      
      <glyph glyph-name="xianxing_shenhe_1" unicode="&#59185;" d="M800 384H640.959c3.584 45.447 17.159 90.761 39.79 132.354 15.454 28.404 23.492 60.606 23.246 93.127-0.388 51.285-20.901 99.415-57.763 135.521C609.962 780.528 562.387 800 512.005 800c-0.854 0-1.714-0.005-2.569-0.017-50.75-0.666-98.353-20.933-134.041-57.064C339.673 706.753 320 658.838 320 608c0-31.546 7.826-62.84 22.633-90.5 22.502-42.034 36.183-87.69 40.155-133.5H224c-70.58 0-128-57.421-128-128v-224c0-35.29 28.71-64 64-64h704c35.29 0 64 28.71 64 64V256c0 70.579-57.42 128-128 128z m64-352H160V256c0 35.29 28.71 64 64 64h192c17.673 0 32 14.327 32 32v4.157c0 65.499-16.924 131.735-48.943 191.548C389.207 566.106 384 586.956 384 608c0 69.659 56.647 127.074 126.276 127.989 34.157 0.454 66.546-12.588 91.17-36.708 24.601-24.097 38.291-56.161 38.549-90.285 0.164-21.699-5.184-43.157-15.465-62.055C592.782 488.59 576 423.859 576 359.749V352c0-17.673 14.327-32 32-32h192c35.29 0 64-28.71 64-64v-224zM760 216H264c-22.091 0-40-17.909-40-40s17.909-40 40-40h496c22.091 0 40 17.909 40 40s-17.909 40-40 40z"  horiz-adv-x="1024" />
      
    </font>
</defs>
</svg>
