<?xml version="1.0" encoding="utf-8"?>
<!-- Generator: Adobe Illustrator 24.0.1, SVG Export Plug-In . SVG Version: 6.00 Build 0)  -->
<svg version="1.1" id="图层_1" xmlns="http://www.w3.org/2000/svg" xmlns:xlink="http://www.w3.org/1999/xlink" x="0px" y="0px"
	 width="55px" height="55px" viewBox="0 0 55 55" style="enable-background:new 0 0 55 55;" xml:space="preserve">
<g>
	<path style="fill-rule:evenodd;clip-rule:evenodd;fill:#FFFFFF;" d="M39,29c6.075,0,11,4.925,11,11c0,6.075-4.925,11-11,11
		c-6.075,0-11-4.925-11-11C28,33.925,32.925,29,39,29z"/>
	<path style="fill:#FC4B1B;" d="M39,31c4.963,0,9,4.037,9,9c0,4.963-4.037,9-9,9c-4.963,0-9-4.037-9-9C30,35.037,34.037,31,39,31
		 M39,29c-6.075,0-11,4.925-11,11c0,6.075,4.925,11,11,11c6.075,0,11-4.925,11-11C50,33.925,45.075,29,39,29L39,29z"/>
	<path style="fill-rule:evenodd;clip-rule:evenodd;fill:#FC4B1B;" d="M37.706,40.292c0.39-0.391,1.023-0.391,1.414-0.001
		l3.538,3.533c0.391,0.39,0.391,1.023,0.001,1.414c-0.39,0.391-1.023,0.391-1.414,0.001l-3.538-3.533
		C37.317,41.316,37.316,40.683,37.706,40.292z"/>
	<path style="fill-rule:evenodd;clip-rule:evenodd;fill:#FC4B1B;" d="M38,34c0.552,0,1,0.448,1,1v5.5c0,0.552-0.448,1-1,1
		c-0.552,0-1-0.448-1-1V35C37,34.448,37.448,34,38,34z"/>
	<g>
		<g>
			<path style="fill-rule:evenodd;clip-rule:evenodd;fill:#171D2E;" d="M25,31h-2c-1.104,0-2,0.895-2,2s0.895,2,2,2h2
				c1.105,0,2-0.895,2-2S26.104,31,25,31z M15,31c-1.105,0-2,0.895-2,2s0.895,2,2,2c1.105,0,2-0.895,2-2S16.105,31,15,31z M31,23h-8
				c-1.104,0-2,0.895-2,2c0,1.105,0.895,2,2,2h8c1.105,0,2-0.895,2-2C33,23.895,32.104,23,31,23z M15,23c-1.105,0-2,0.895-2,2
				c0,1.105,0.895,2,2,2c1.105,0,2-0.895,2-2C17,23.895,16.105,23,15,23z M39,15H23c-1.104,0-2,0.895-2,2s0.895,2,2,2h16
				c1.104,0,2-0.895,2-2S40.104,15,39,15z M15,15c-1.105,0-2,0.895-2,2s0.895,2,2,2c1.105,0,2-0.895,2-2S16.105,15,15,15z M43,5
				h-5.184C37.403,3.837,36.304,3,35,3H21c-1.304,0-2.403,0.838-2.816,2H13c-3.314,0-6,2.686-6,6v34c0,3.314,2.686,6,6,6h13v-2H13
				c-2.206,0-4-1.794-4-4V11c0-2.206,1.794-4,4-4h5.184C18.597,8.162,19.696,9,21,9h14c1.304,0,2.403-0.838,2.816-2H43
				c2.206,0,4,1.794,4,4v15h2V11C49,7.686,46.314,5,43,5z"/>
		</g>
	</g>
</g>
</svg>
