<?xml version="1.0" encoding="utf-8"?>
<!-- Generator: Adobe Illustrator 24.0.1, SVG Export Plug-In . SVG Version: 6.00 Build 0)  -->
<svg version="1.1" id="图层_2" xmlns="http://www.w3.org/2000/svg" xmlns:xlink="http://www.w3.org/1999/xlink" x="0px" y="0px"
	 width="1024px" height="1024px" shape-rendering="geometricPrecision" viewBox="0 0 1024 1024" style="enable-background:new 0 0 1024 1024;" xml:space="preserve">
<g>
	<g>
		<path fill="#171d2e" d="M516.719,64c-146.911,0-266.006,119.095-266.006,266.006c0,95.745,50.593,179.662,126.495,226.511
			c-5.003,1.882-9.977,3.863-14.92,5.954c-47.245,19.983-89.668,48.583-126.092,85.007c-36.423,36.424-65.024,78.847-85.007,126.092
			C130.494,822.5,120,874.458,120,928c0,17.673,14.327,32,32,32s32-14.327,32-32c0-178.605,141.465-324.77,318.229-332.385
			c4.798,0.258,9.628,0.397,14.49,0.397c146.911,0,266.006-119.095,266.006-266.006C782.726,183.095,663.63,64,516.719,64z
			 M659.559,472.846c-36.664,36.665-84.942,57.488-136.537,59.059c-2.038-0.407-4.145-0.624-6.303-0.624
			c-4.684,0-9.356,0.085-14.015,0.246c-48.681-3.314-93.994-23.849-128.825-58.681c-38.154-38.153-59.166-88.882-59.166-142.84
			c0-53.958,21.012-104.686,59.166-142.84C412.033,149.012,462.762,128,516.719,128c53.958,0,104.686,21.012,142.84,59.166
			c38.154,38.154,59.166,88.882,59.166,142.84C718.726,383.964,697.713,434.692,659.559,472.846z M868.34,763.401
			c-22.853-50.054-55.297-94.119-96.433-130.971c-13.164-11.793-33.394-10.682-45.187,2.482
			c-11.792,13.164-10.681,33.395,2.482,45.187C799.616,743.18,840,833.536,840,928c0,17.673,14.327,32,32,32s32-14.327,32-32
			C904,870.607,892.002,815.229,868.34,763.401z"/>
	</g>
</g>
</svg>
