<?xml version="1.0" standalone="no"?><!DOCTYPE svg PUBLIC "-//W3C//DTD SVG 1.1//EN" "http://www.w3.org/Graphics/SVG/1.1/DTD/svg11.dtd"><svg t="1668592922711" class="icon" viewBox="0 0 1024 1024" version="1.1" xmlns="http://www.w3.org/2000/svg" p-id="11101" xmlns:xlink="http://www.w3.org/1999/xlink" width="128" height="128"><path d="M783.42 894.736c-185.528-1.974-167.57-150.005-167.57-150.005H514.118s-275.279-23.68-273.293-299.995c1.99-276.308 271.298-315.789 271.298-315.789H735.54a15.899 15.899 0 0 1 11.251 4.592 15.853 15.853 0 0 1 4.698 11.201v94.781a15.409 15.409 0 0 1-17.844 15.551c-43.75-0.448-156.145-1.383-197.531 0.194-51.861 1.976-157.594 43.411-159.585 191.451-1.985 148.035 159.535 179.553 159.535 179.553H735.54a15.885 15.885 0 0 1 11.251 4.599 15.842 15.842 0 0 1 4.698 11.201v173.755c0 63.187 31.931 78.952 31.931 78.952v-0.041z m-31.931-410.528a15.86 15.86 0 0 1-4.702 11.196 15.874 15.874 0 0 1-11.247 4.592H514.118s-31.917-3.945-33.912-53.279c-2-49.338 33.912-65.143 33.912-65.143H735.54c8.763-0.034 15.899 7.032 15.949 15.795v86.839z m0 0" fill="#E94620" p-id="11102"></path></svg>