<?xml version="1.0" standalone="no"?><!DOCTYPE svg PUBLIC "-//W3C//DTD SVG 1.1//EN" "http://www.w3.org/Graphics/SVG/1.1/DTD/svg11.dtd"><svg t="1667561254366" class="icon" viewBox="0 0 2048 1024" version="1.1" xmlns="http://www.w3.org/2000/svg" p-id="20153" width="176" height="88" xmlns:xlink="http://www.w3.org/1999/xlink"><path d="M562.554 827.664c-148.604-1.578-134.214-120.15-134.214-120.15h-81.49s-220.486-18.94-218.838-240.28c1.636-221.336 217.236-252.948 217.236-252.948h178.856a12.632 12.632 0 0 1 12.778 12.626v75.902a12.348 12.348 0 0 1-4.232 9.61 12.344 12.344 0 0 1-10.1 2.864c-35.058-0.362-125.072-1.11-158.236 0.152-41.536 1.59-126.254 34.778-127.808 153.35-1.568 118.572 127.808 143.844 127.808 143.844h159.898a12.588 12.588 0 0 1 9.022 3.648 12.628 12.628 0 0 1 3.752 8.978v139.114c0 50.5 25.566 63.124 25.566 63.124v0.166z m-25.566-328.828a12.664 12.664 0 0 1-3.752 8.99 12.634 12.634 0 0 1-9.022 3.636h-177.362s-25.566-3.158-27.168-42.67c-1.602-39.512 27.168-52.162 27.168-52.162h177.362a12.588 12.588 0 0 1 9.022 3.648 12.628 12.628 0 0 1 3.752 8.978v69.58z m0 0" fill="#E94620" p-id="20154"></path><path d="M1909.352 708.94h-128.696c-68.42 0.024-123.902-55.412-123.938-123.832V375.53a9.486 9.486 0 0 1 2.784-6.746 9.536 9.536 0 0 1 6.746-2.784h47.662a9.532 9.532 0 0 1 9.538 9.53v200.074c0.024 36.836 29.902 66.694 66.74 66.682h119.168a9.514 9.514 0 0 1 9.53 9.514v47.636a9.544 9.544 0 0 1-9.528 9.528v-0.024z m-23.848-228.632h-123.938a9.514 9.514 0 0 1-9.526-9.518v-47.706c0-2.526 1.006-4.946 2.792-6.734a9.522 9.522 0 0 1 6.734-2.796h123.938a9.544 9.544 0 0 1 9.542 9.53v47.646a9.516 9.516 0 0 1-2.796 6.734 9.518 9.518 0 0 1-6.746 2.772v0.072zM1475.57 708.94h-95.366v-0.246c-50.654-2.502-90.458-44.294-90.482-95.004v-9.54c0.036-50.71 39.83-92.502 90.482-95.016v-0.254h114.386c5.26 0 9.54 4.264 9.552 9.526v47.648a9.558 9.558 0 0 1-9.552 9.528h-109.626v0.478a33.188 33.188 0 0 0 0 65.722v0.478h90.48v-0.76c32.802-4.686 57.174-32.778 57.21-65.92v-76.22c-0.036-33.14-24.408-61.22-57.21-65.92l-152.532-0.76a9.556 9.556 0 0 1-9.408-9.598v-47.568a9.55 9.55 0 0 1 9.526-9.538h157.314s119.168 4.498 119.168 123.854v95.274a123.928 123.928 0 0 1-36.322 87.606 123.938 123.938 0 0 1-87.616 36.25v-0.02z m-252.634 0h-47.66a9.586 9.586 0 0 1-6.746-2.784 9.55 9.55 0 0 1-2.792-6.742V499.362c0-17.686-7.038-34.66-19.556-47.158a66.7 66.7 0 0 0-47.182-19.52h-85.794v266.732a9.542 9.542 0 0 1-9.55 9.526h-47.66a9.544 9.544 0 0 1-9.528-9.526v-495.38a9.544 9.544 0 0 1 9.528-9.526h47.66a9.548 9.548 0 0 1 9.55 9.526v162.026h95.322a123.868 123.868 0 0 1 87.616 36.262 123.868 123.868 0 0 1 36.322 87.594v209.578a9.554 9.554 0 0 1-9.528 9.538v-0.094z m-343.196 0h-143.084c-68.388-0.024-123.822-55.444-123.856-123.832v-95.274a123.846 123.846 0 0 1 36.322-87.592 123.872 123.872 0 0 1 87.616-36.262h143.088a9.55 9.55 0 0 1 9.526 9.538v47.568a9.556 9.556 0 0 1-9.526 9.538h-133.56a66.646 66.646 0 0 0-47.218 19.524 66.738 66.738 0 0 0-19.544 47.216v76.22c0.024 36.846 29.902 66.692 66.752 66.68h133.466a9.514 9.514 0 0 1 9.526 9.518v47.638a9.546 9.546 0 0 1-9.526 9.526h0.018z m0 0" fill="#F18D0F" p-id="20155"></path></svg>