<?xml version="1.0" encoding="utf-8"?>
<!-- Generator: Adobe Illustrator 24.0.1, SVG Export Plug-In . SVG Version: 6.00 Build 0)  -->
<svg version="1.1" id="图层_2" xmlns="http://www.w3.org/2000/svg" xmlns:xlink="http://www.w3.org/1999/xlink" x="0px" y="0px"
	 width="1024px" height="1024px" viewBox="0 0 1024 1024" style="enable-background:new 0 0 1024 1024;" xml:space="preserve">
<path style="fill:#1DA1F2;" d="M345.783,876.228c338.129,0,523.04-280.229,523.04-523.235c0-7.958-0.162-15.88-0.521-23.77
	c35.98-26.044,67.031-58.29,91.698-95.227c-32.939,14.649-68.384,24.509-105.568,28.954c37.954-22.766,67.091-58.783,80.839-101.714
	c-36.086,21.415-75.564,36.511-116.731,44.638c-33.545-35.745-81.303-58.102-134.185-58.102
	c-101.518,0-183.84,82.355-183.84,183.871c0,14.433,1.615,28.466,4.77,41.932c-152.784-7.691-288.263-80.868-378.932-192.137
	c-16.33,28.064-24.92,59.96-24.891,92.43c0,63.802,32.453,120.124,81.806,153.076c-29.193-0.892-57.745-8.78-83.255-23.001
	c-0.027,0.772-0.027,1.524-0.027,2.349c0,89.059,63.365,163.418,147.479,180.267c-15.798,4.304-32.1,6.48-48.473,6.47
	c-11.825,0-23.349-1.164-34.549-3.314c23.403,73.068,91.266,126.24,171.726,127.726c-62.918,49.333-142.176,78.717-228.318,78.717
	C93.196,796.17,78.554,795.319,64,793.61c81.358,52.167,177.962,82.605,281.792,82.605"/>
</svg>
