<?xml version="1.0" encoding="utf-8"?>
<!-- Generator: Adobe Illustrator 24.0.1, SVG Export Plug-In . SVG Version: 6.00 Build 0)  -->
<svg version="1.1" id="图层_2" xmlns="http://www.w3.org/2000/svg" xmlns:xlink="http://www.w3.org/1999/xlink" x="0px" y="0px"
	 width="1024px" height="1024px" viewBox="0 0 1024 1024" style="enable-background:new 0 0 1024 1024;" xml:space="preserve">
<g>
	<g>
		<path d="M512.398,528c114.875,0,208-93.125,208-208s-93.125-208-208-208s-208,93.125-208,208S397.523,528,512.398,528z
			 M911.23,846.416C888.305,709.02,794.541,595.252,668.268,542.943c-15.584,10.915-32.281,20.172-49.975,27.656
			c-24.637,10.42-50.383,17.055-76.839,19.858L512,612.479l69.321,164.034L512,856l-69.321-79.488L512,612.479l-29.595-22.127
			c-26.127-2.86-51.556-9.456-75.901-19.753c-17.806-7.531-34.603-16.855-50.271-27.861
			C229.707,594.954,135.725,708.839,112.77,846.416C107.031,880.805,134.129,912,169.388,912h685.225
			C889.871,912,916.969,880.805,911.23,846.416z"/>
	</g>
</g>
</svg>
