<?xml version="1.0" encoding="utf-8"?>
<!-- Generator: Adobe Illustrator 24.0.1, SVG Export Plug-In . SVG Version: 6.00 Build 0)  -->
<svg version="1.1" id="图层_1" xmlns="http://www.w3.org/2000/svg" xmlns:xlink="http://www.w3.org/1999/xlink" x="0px" y="0px"
	 width="55px" height="55px" viewBox="0 0 55 55" style="enable-background:new 0 0 55 55;" xml:space="preserve">
<path style="fill:#171D2E;" d="M52.826,18.914c0-9.33-8.653-16.894-19.326-16.894c-9.875,0-18.005,6.479-19.169,14.836
	C7.153,19.078,2,25.042,2,32.078c0,5.234,2.844,9.887,7.256,12.843C10.266,45.598,7,52.078,7,52.078s8.012-4.109,9.958-4.109
	c0.058,0,0.111,0.004,0.158,0.011c1.097,0.177,2.228,0.27,3.384,0.27c8.758,0,16.063-5.329,17.979-12.474
	c3.054,0.921,9.124,4.032,9.124,4.032s-3.412-6.77-2.357-7.477C49.855,29.244,52.826,24.382,52.826,18.914z M20.5,46.25
	c-1.031,0-2.062-0.082-3.065-0.244c-0.152-0.025-0.312-0.037-0.477-0.037c-1.216,0-3.645,0.931-6.001,1.983
	c1.029-3.183,0.309-4.091-0.587-4.692C6.321,40.548,4,36.472,4,32.078C4,26.19,8.214,21.15,14.179,19.015
	c0.062,9.284,8.686,16.794,19.321,16.794c1.007,0,1.99-0.082,2.955-0.212C34.628,41.711,28.181,46.25,20.5,46.25z M44.133,30.67
	c-0.927,0.621-1.666,1.57-0.518,4.989c-2.507-1.127-5.126-2.144-6.415-2.144c-0.168,0-0.331,0.013-0.484,0.037
	c-1.053,0.17-2.135,0.256-3.216,0.256c-9.554,0-17.326-6.682-17.326-14.894c0-8.213,7.773-14.894,17.326-14.894
	c9.554,0,17.326,6.681,17.326,14.894C50.826,23.535,48.387,27.82,44.133,30.67z"/>
<path style="fill-rule:evenodd;clip-rule:evenodd;fill:#FC4B1B;" d="M43,16c1.105,0,2,0.895,2,2s-0.895,2-2,2c-1.105,0-2-0.895-2-2
	S41.895,16,43,16z"/>
<path style="fill-rule:evenodd;clip-rule:evenodd;fill:#FC4B1B;" d="M34,16c1.105,0,2,0.895,2,2s-0.895,2-2,2c-1.105,0-2-0.895-2-2
	S32.895,16,34,16z"/>
<path style="fill-rule:evenodd;clip-rule:evenodd;fill:#FC4B1B;" d="M12,30c1.105,0,2,0.895,2,2c0,1.105-0.895,2-2,2
	c-1.105,0-2-0.895-2-2C10,30.895,10.895,30,12,30z"/>
<path style="fill-rule:evenodd;clip-rule:evenodd;fill:#FC4B1B;" d="M25,16c1.105,0,2,0.895,2,2s-0.895,2-2,2c-1.105,0-2-0.895-2-2
	S23.895,16,25,16z"/>
</svg>
