<?xml version="1.0" standalone="no"?><!DOCTYPE svg PUBLIC "-//W3C//DTD SVG 1.1//EN" "http://www.w3.org/Graphics/SVG/1.1/DTD/svg11.dtd"><svg t="1666961462734" class="icon" viewBox="0 0 2730 1024" version="1.1" xmlns="http://www.w3.org/2000/svg" p-id="1534" xmlns:xlink="http://www.w3.org/1999/xlink" width="341.25" height="128"><path d="M672.552 659.402667h114.613333a8.765333 8.765333 0 0 0 8.754667-8.768v-34.162667c0-2.330667-0.925333-4.573333-2.557333-6.218667a8.8 8.8 0 0 0-6.218667-2.570666h-109.245333c-24.536 0-44.437333-19.898667-44.437334-44.450667v-70.034667c0.026667-24.525333 19.914667-44.389333 44.437334-44.389333h109.266666a8.776 8.776 0 0 0 8.781334-8.778667V405.84a8.773333 8.773333 0 0 0-8.781334-8.765333h-114.613333c-50.138667 0-90.8 40.648-90.8 90.8v80.68a90.792 90.792 0 0 0 90.8 90.848z m0 0M1465.962667 431.237333h94.461333c5.864 0 8.792 2.938667 8.792 8.792v34.149334c0 5.866667-2.928 8.792-8.792 8.792h-94.461333c-5.866667 0-8.792-2.925333-8.792-8.792v-34.149334c0-5.853333 2.925333-8.792 8.792-8.792z m0 0" fill="#F08D00" p-id="1535"></path><path d="M1427.048 396.92H1392.906667a8.8 8.8 0 0 0-8.792 8.792v165.333333a88.445333 88.445333 0 0 0 88.472 88.472h103.186666c2.357333 0 4.610667-0.936 6.258667-2.597333a8.794667 8.794667 0 0 0 2.546667-6.285333v-36.064a8.784 8.784 0 0 0-8.802667-8.765334h-95.485333c-24.552 0-44.437333-19.888-44.437334-44.437333v-155.656a8.8 8.8 0 0 0-8.805333-8.792z m-301.664 51.885333h115.525333c11.794667 0 23.093333 4.685333 31.429334 13.024a44.4 44.4 0 0 1 13.008 31.44v70.053334c0 24.536-19.898667 44.437333-44.437334 44.437333h-62.36c-14.186667 0-25.690667-11.501333-25.690666-25.690667 0-14.173333 11.501333-25.677333 25.690666-25.677333h76.346667a8.8 8.8 0 0 0 8.792-8.805333v-34.24a8.8 8.8 0 0 0-8.792-8.765334h-82.805333a70.901333 70.901333 0 0 0-50.189334 20.776 70.96 70.96 0 0 0-20.773333 50.173334v4.802666a79.093333 79.093333 0 0 0 23.144 55.912 79.053333 79.053333 0 0 0 55.912 23.157334h67.442667c49.402667 0 89.445333-40.029333 89.456-89.421334v-83.490666c-0.013333-49.389333-40.056-89.418667-89.456-89.418667h-122.242667a8.76 8.76 0 0 0-8.789333 8.765333V440a8.792 8.792 0 0 0 8.789333 8.805333z m0 0" fill="#F08D00" p-id="1536"></path><path d="M491.738667 495.501333v-59.664a10.221333 10.221333 0 0 0-10.2-10.221333h-123.176c-10.605333 0-20.773333 4.205333-28.274667 11.704a40.04 40.04 0 0 0-11.704 28.274667c0 22.077333 17.896 39.978667 39.978667 39.978666h123.176a10.234667 10.234667 0 0 0 10.2-10.072z m0 0" fill="#E84720" p-id="1537"></path><path d="M491.738667 659.402667c-0.344-14.810667-0.192-51.645333 0-69.658667a10.213333 10.213333 0 0 0-10.221334-10.373333h-115.16c-64.112 0.013333-116.109333-51.925333-116.149333-116.032 0-64.149333 52.002667-116.149333 116.149333-116.149334h115.184a10.205333 10.205333 0 0 0 10.197334-10.194666v-59.413334a10.218667 10.218667 0 0 0-10.2-10.221333h-115.184c-108.256 0-196.013333 87.722667-196.08 195.978667v18.341333c0 98.157333 79.576 177.725333 177.738666 177.725333h51.514667c5.84 39.978667 30.250667 94.256 110.157333 94.256-14.997333-15-17.301333-67.176-17.946666-94.258666z m0 0" fill="#E84720" p-id="1538"></path><path d="M879.664 268.296h-34.176c-2.330667 0-4.56 0.925333-6.208 2.570667a8.786667 8.786667 0 0 0-2.56 6.218666v373.573334a8.762667 8.762667 0 0 0 8.765333 8.765333h34.176a8.762667 8.762667 0 0 0 8.765334-8.765333v-199.749334h72.432c24.549333 0 44.450667 19.885333 44.464 44.437334v155.288a8.768 8.768 0 0 0 8.765333 8.768h34.162667a8.773333 8.773333 0 0 0 8.778666-8.768v-154.589334c0-53.506667-43.373333-96.88-96.88-96.893333H888.426667v-122.064a8.770667 8.770667 0 0 0-8.762667-8.792z m0 0" fill="#F08D00" p-id="1539"></path><path d="M2059.744 484.682667H1719.045333a19.354667 19.354667 0 0 0 0 38.709333h340.701334a19.349333 19.349333 0 0 0 16.76-9.677333 19.341333 19.341333 0 0 0 0-19.357334 19.344 19.344 0 0 0-16.762667-9.674666z m0 0M2535.725333 542.634667H2296.4a15.562667 15.562667 0 0 0-15.568 15.565333v123.877333a15.562667 15.562667 0 0 0 15.568 15.565334h239.325333a15.557333 15.557333 0 0 0 15.552-15.565334v-123.952a15.56 15.56 0 0 0-15.552-15.490666z m-15.570666 117.994666a7.781333 7.781333 0 0 1-7.792 7.778667h-192.592a7.781333 7.781333 0 0 1-7.778667-7.778667v-76.509333a7.781333 7.781333 0 0 1 7.778667-7.778667h192.592a7.781333 7.781333 0 0 1 7.792 7.778667v76.509333z m0 0M2179.933333 363.48c0 8.525333 4.762667 16.402667 12.488 20.672a26.069333 26.069333 0 0 0 24.992 0c7.728-4.272 12.490667-12.146667 12.490667-20.672s-4.762667-16.405333-12.490667-20.672a26.04 26.04 0 0 0-24.992 0c-7.722667 4.266667-12.488 12.146667-12.488 20.672z m0 0M2179.933333 464.237333c0 8.525333 4.762667 16.405333 12.488 20.672a26 26 0 0 0 24.992 0c7.728-4.266667 12.490667-12.146667 12.490667-20.672s-4.762667-16.405333-12.490667-20.661333a25.970667 25.970667 0 0 0-24.992 0c-7.722667 4.253333-12.488 12.133333-12.488 20.661333z m0 0" fill="#3E3A39" p-id="1540"></path><path d="M2205.776 542.874667a17.373333 17.373333 0 0 0-12.312 5.104 17.36 17.36 0 0 0-5.093333 12.325333v123.874667a17.413333 17.413333 0 0 0 8.512 15.656 17.421333 17.421333 0 0 0 26.322666-15.656v-123.821334a17.448 17.448 0 0 0-5.077333-12.365333 17.432 17.432 0 0 0-12.352-5.117333z m0 0M2555.56 468.416l-126.472-143.482667a20.501333 20.501333 0 0 0-28.173333 0l-126.472 143.482667a18.986667 18.986667 0 0 0 0 24.488 14.016 14.016 0 0 0 21.586666 0l118.970667-134.896 92.901333 105.405333h-138.376a17.333333 17.333333 0 0 0 0 34.661334h169.866667a17.845333 17.845333 0 0 0 2.914667-0.290667 14.096 14.096 0 0 0 13.250666-4.829333 19.018667 19.018667 0 0 0 0.002667-24.538667z m0 0" fill="#3E3A39" p-id="1541"></path></svg>