<?xml version="1.0" encoding="utf-8"?>
<!-- Generator: Adobe Illustrator 24.0.1, SVG Export Plug-In . SVG Version: 6.00 Build 0)  -->
<svg version="1.1" id="图层_1" xmlns="http://www.w3.org/2000/svg" xmlns:xlink="http://www.w3.org/1999/xlink" x="0px" y="0px"
	 width="55px" height="55px" viewBox="0 0 55 55" style="enable-background:new 0 0 55 55;" xml:space="preserve">
<g>
	<path style="fill:#FC4B1B;" d="M47,7c0.551,0,1,0.449,1,1v9c0,0.551-0.449,1-1,1h-8h-0.472l-0.422,0.211L33,20.764V20v-2h-2
		c-0.551,0-1-0.449-1-1V8c0-0.551,0.449-1,1-1H47 M47,5H31c-1.657,0-3,1.343-3,3v9c0,1.657,1.343,3,3,3v4l8-4h8c1.657,0,3-1.343,3-3
		V8C50,6.343,48.657,5,47,5L47,5z"/>
	<path style="fill-rule:evenodd;clip-rule:evenodd;fill:#FFFFFF;" d="M9.999,6.025l9.208,9.208c0,0,2.39,2.601,0,4.604
		s-3.62,5.832-1.151,9.208c2.469,3.376,10.321,10.839,13.812,8.057c3.491-2.782,4.22-4.667,5.755-3.453
		c1.535,1.214,9.685,9.556,10.359,10.359c0.674,0.803,1.637,2.165-1.151,4.604c-2.788,2.439-11.044,5.47-19.567,1.151
		C18.741,45.444,6.44,35.905,3.092,25.592C0.13,16.465,3.068,9.736,4.244,8.328S7.375,4.307,9.999,6.025z"/>
	<path style="fill:#171D2E;" d="M8.274,7.46L8.274,7.46c0.138,0,0.298,0.05,0.479,0.149l8.99,8.99
		c0.209,0.251,0.553,0.821,0.524,1.198c-0.005,0.064-0.018,0.234-0.345,0.508c-3.065,2.569-4.626,7.62-1.481,11.921
		c1.376,1.882,8.117,9.485,13.568,9.485c1.19,0,2.235-0.351,3.105-1.044c1.146-0.913,1.997-1.721,2.68-2.37
		c0.292-0.278,0.63-0.598,0.891-0.821c1.96,1.741,9.103,9.032,9.765,9.818c0.192,0.229,0.247,0.325,0.256,0.339
		c0,0.005-0.063,0.486-1.191,1.474c-1.561,1.365-5.12,2.834-9.248,2.834c-2.805,0-5.53-0.66-8.099-1.962
		C20.611,44.15,8.204,34.864,4.995,24.975C2.21,16.393,5.095,10.428,5.779,9.609L5.96,9.391C6.557,8.669,7.558,7.46,8.274,7.46
		 M8.274,5.46c-1.768,0-3.129,1.788-4.031,2.868C3.068,9.736,0.13,16.465,3.092,25.592C6.44,35.905,18.741,45.444,27.264,49.764
		c3.122,1.582,6.208,2.178,9.003,2.178c4.834,0,8.797-1.783,10.564-3.329c2.788-2.439,1.825-3.801,1.151-4.604
		c-0.674-0.803-8.824-9.145-10.359-10.359c-0.325-0.257-0.614-0.375-0.901-0.375c-1.067,0-2.102,1.636-4.854,3.828
		c-0.53,0.423-1.161,0.609-1.859,0.609c-3.894,0-9.859-5.802-11.953-8.666c-2.469-3.376-1.239-7.205,1.151-9.208
		c2.39-2.003,0-4.604,0-4.604L9.999,6.025C9.387,5.625,8.812,5.46,8.274,5.46L8.274,5.46z"/>
</g>
</svg>
