<?xml version="1.0" encoding="utf-8"?>
<!-- Generator: Adobe Illustrator 24.0.1, SVG Export Plug-In . SVG Version: 6.00 Build 0)  -->
<svg version="1.1" id="图层_1" xmlns="http://www.w3.org/2000/svg" xmlns:xlink="http://www.w3.org/1999/xlink" x="0px" y="0px"
	 width="55px" height="55px" viewBox="0 0 55 55" style="enable-background:new 0 0 55 55;" xml:space="preserve">
<g>
	<path style="fill:#171D2E;" d="M47,10c2.206,0,4,1.794,4,4v27c0,2.206-1.794,4-4,4H8c-2.206,0-4-1.794-4-4V14c0-2.206,1.794-4,4-4
		H47 M47,8H8c-3.314,0-6,2.686-6,6v27c0,3.314,2.686,6,6,6h39c3.314,0,6-2.686,6-6V14C53,10.686,50.314,8,47,8L47,8z"/>
	<g>
		<path style="fill-rule:evenodd;clip-rule:evenodd;fill:#171D2E;" d="M28,13c-4.418,0-8,3.582-8,8c0,4.418,3.582,8,8,8s8-3.582,8-8
			C36,16.582,32.418,13,28,13z M31.334,26.57c0.356-0.46,0.573-0.993,0.573-1.57c0-1.031-0.659-1.939-1.662-2.491
			c0.29-0.431,0.46-0.95,0.46-1.509c0-1.494-1.211-2.704-2.705-2.704c-1.494,0-2.704,1.211-2.704,2.704
			c0,0.559,0.17,1.078,0.46,1.509c-1.003,0.552-1.662,1.46-1.662,2.491c0,0.576,0.217,1.11,0.572,1.569
			C22.773,25.432,21.5,23.364,21.5,21c0-3.584,2.916-6.5,6.5-6.5c3.584,0,6.5,2.916,6.5,6.5C34.5,23.365,33.227,25.432,31.334,26.57
			z"/>
	</g>
	<path style="fill-rule:evenodd;clip-rule:evenodd;fill:#FC4B1B;" d="M20.5,39h16c0.829,0,1.5,0.672,1.5,1.5
		c0,0.829-0.672,1.5-1.5,1.5h-16c-0.828,0-1.5-0.672-1.5-1.5C19,39.672,19.672,39,20.5,39z"/>
	<path style="fill-rule:evenodd;clip-rule:evenodd;fill:#FC4B1B;" d="M15.5,33h26c0.828,0,1.5,0.672,1.5,1.5
		c0,0.828-0.672,1.5-1.5,1.5h-26c-0.828,0-1.5-0.672-1.5-1.5C14,33.671,14.672,33,15.5,33z"/>
</g>
</svg>
