<?xml version="1.0" encoding="utf-8"?>
<!-- Generator: Adobe Illustrator 24.0.1, SVG Export Plug-In . SVG Version: 6.00 Build 0)  -->
<svg version="1.1" id="图层_1" xmlns="http://www.w3.org/2000/svg" xmlns:xlink="http://www.w3.org/1999/xlink" x="0px" y="0px"
	 width="55px" height="55px" viewBox="0 0 55 55" style="enable-background:new 0 0 55 55;" xml:space="preserve">
<g>
	<path style="fill:#171D2E;" d="M46,5H9c-3.314,0-6,2.686-6,6v27c0,3.314,2.686,6,6,6h18v5h-5c-0.552,0-1,0.448-1,1
		c0,0.552,0.448,1,1,1h12c0.552,0,1-0.448,1-1c0-0.552-0.448-1-1-1h-5v-5h17c3.314,0,6-2.686,6-6V11C52,7.686,49.314,5,46,5z M50,38
		c0,2.206-1.794,4-4,4H9c-2.206,0-4-1.794-4-4V11c0-2.206,1.794-4,4-4h37c2.206,0,4,1.794,4,4V38z"/>
	<path style="fill:#FC4B1B;" d="M15.186,26.982l-0.372-1.965c0.143-0.027,14.334-2.838,20.314-13.507l1.744,0.979
		C30.429,23.982,15.805,26.865,15.186,26.982z"/>
	<g>
		<path style="fill-rule:evenodd;clip-rule:evenodd;fill:#171D2E;" d="M37,18h2v14h-2V18z"/>
	</g>
	<g>
		<path style="fill-rule:evenodd;clip-rule:evenodd;fill:#171D2E;" d="M31,22h2v10h-2V22z"/>
	</g>
	<g>
		<path style="fill-rule:evenodd;clip-rule:evenodd;fill:#171D2E;" d="M25,26h2v6h-2V26z"/>
	</g>
	<g>
		<polygon style="fill-rule:evenodd;clip-rule:evenodd;fill:#171D2E;" points="13,34 13,11 11,11 11,34 11,35 11,36 43,36 43,34 		
			"/>
	</g>
</g>
</svg>
