<?xml version="1.0" encoding="utf-8"?>
<!-- Generator: Adobe Illustrator 24.0.1, SVG Export Plug-In . SVG Version: 6.00 Build 0)  -->
<svg version="1.1" id="图层_1" xmlns="http://www.w3.org/2000/svg" xmlns:xlink="http://www.w3.org/1999/xlink" x="0px" y="0px"
	 width="55px" height="55px" viewBox="0 0 55 55" style="enable-background:new 0 0 55 55;" xml:space="preserve">
<g>
	<path style="fill:#171D2E;" d="M46,5H9c-3.314,0-6,2.686-6,6v27c0,3.314,2.686,6,6,6h18v5h-5c-0.552,0-1,0.448-1,1
		c0,0.552,0.448,1,1,1h12c0.552,0,1-0.448,1-1c0-0.552-0.448-1-1-1h-5v-5h17c3.314,0,6-2.686,6-6V11C52,7.686,49.314,5,46,5z M50,38
		c0,2.206-1.794,4-4,4H9c-2.206,0-4-1.794-4-4V11c0-2.206,1.794-4,4-4h37c2.206,0,4,1.794,4,4V38z"/>
	<path style="fill:#FC4B1B;" d="M19.267,38.952c-3.097-0.567-9.007-3.352-9.205-9.824l2-0.061c0.198,6.492,7.492,7.904,7.566,7.918
		L19.267,38.952z"/>
	<path style="fill:#FC4B1B;" d="M40.286,17.7c-4.331-4.414-10.265-4.698-10.324-4.701l0.074-1.998
		c0.274,0.01,6.773,0.299,11.678,5.299L40.286,17.7z"/>
	<path style="fill:#171D2E;" d="M23.375,25.5H13c-0.827,0-1.5-0.673-1.5-1.5v-7c0-0.827,0.673-1.5,1.5-1.5h12
		c0.827,0,1.5,0.673,1.5,1.5v5H28v-5c0-1.657-1.343-3-3-3H13c-1.657,0-3,1.343-3,3v7c0,1.657,1.343,3,3,3h10.375V25.5z"/>
	<path style="fill:#FC4B1B;" d="M41,23c0.551,0,1,0.449,1,1v10c0,0.551-0.449,1-1,1H25c-0.551,0-1-0.449-1-1V24c0-0.551,0.449-1,1-1
		H41 M41,21H25c-1.657,0-3,1.343-3,3v10c0,1.657,1.343,3,3,3h16c1.657,0,3-1.343,3-3V24C44,22.343,42.657,21,41,21L41,21z"/>
	<g>
		<path style="fill-rule:evenodd;clip-rule:evenodd;fill:#171D2E;" d="M28.427,25.427l1.88,6.893l1.88-1.88L35,33l1.573-0.68
			l-3.133-3.133l1.88-1.88L28.427,25.427z"/>
	</g>
</g>
</svg>
