<?xml version="1.0" encoding="utf-8"?>
<!-- Generator: Adobe Illustrator 24.0.1, SVG Export Plug-In . SVG Version: 6.00 Build 0)  -->
<svg version="1.1" id="图层_2" xmlns="http://www.w3.org/2000/svg" xmlns:xlink="http://www.w3.org/1999/xlink" x="0px" y="0px"
	 width="1024px" height="1024px" viewBox="0 0 1024 1024" style="enable-background:new 0 0 1024 1024;" xml:space="preserve">
<path style="fill:#888888;" d="M956.549,417.74c-6.598-84.849-9.08-185.642-110.867-203.489
	c-20.621-3.659-41.676-6.874-62.589-7.462c-198.008-6.417-397.776-8.047-596.224,5.706c-58.787,3.79-96.8,38.615-106.459,96.977
	c-17.11,104.012-20.621,210.803-11.554,315.69c6.58,74.606,12.869,163.549,101.634,181.689
	c58.352,12.141,118.018,9.801,177.536,10.973l183.825,3.363c0.292,0,0.879,0,0.875,0.454
	c102.366,1.912,202.102-4.096,304.181-11.558c81.472-5.707,100.777-64.823,110.868-135.316
	C960.351,589.628,963.129,503.464,956.549,417.74z M423.779,642.718V379.691c76.485,43.886,151.799,87.331,228.867,131.513
	C576.162,555.09,500.704,598.535,423.779,642.718z"/>
</svg>
