<?xml version="1.0" encoding="utf-8"?>
<!-- Generator: Adobe Illustrator 24.0.1, SVG Export Plug-In . SVG Version: 6.00 Build 0)  -->
<svg version="1.1" id="图层_1" xmlns="http://www.w3.org/2000/svg" xmlns:xlink="http://www.w3.org/1999/xlink" x="0px" y="0px"
	 width="55px" height="55px" viewBox="0 0 55 55" style="enable-background:new 0 0 55 55;" xml:space="preserve">
<g>
	<path style="fill:#FC4B1B;" d="M52,2c0.551,0,1,0.449,1,1v10c0,0.551-0.449,1-1,1H42h-0.472l-0.422,0.211L36,16.764V16v-2h-2
		c-0.551,0-1-0.449-1-1V3c0-0.551,0.449-1,1-1H52 M52,0H34c-1.657,0-3,1.343-3,3v10c0,1.657,1.343,3,3,3v4l8-4h10
		c1.657,0,3-1.343,3-3V3C55,1.343,53.657,0,52,0L52,0z"/>
	<g>
		<g>
			<path style="fill-rule:evenodd;clip-rule:evenodd;fill:#171D2E;" d="M20.891,11.22c2.762,0,5.001-2.239,5.001-5s-2.239-5-5.001-5
				s-5.001,2.239-5.001,5S18.129,11.22,20.891,11.22z M39.37,30.253C37.001,22.793,30.169,17.336,22,17.03V13h-2v4.051
				c-7.832,0.51-14.361,5.76-16.758,12.913C1.351,30.678,0,32.49,0,34.63v2c0,2.054,1.241,3.815,3.012,4.585
				C5.282,49.166,12.57,55,21.25,55h0.031c8.804,0,16.178-6,18.334-14.126C41.041,39.993,42,38.429,42,36.63v-2
				C42,32.731,40.929,31.1,39.37,30.253z M21.25,19h0.031c7.118,0,13.201,4.41,15.73,10.631c-0.004,0-0.007-0.001-0.011-0.001H5.521
				C8.049,23.41,14.133,19,21.25,19z M21.25,53c-7.398,0-13.689-4.759-16.02-11.37H37c0.108,0,0.208-0.025,0.314-0.032
				C34.991,48.226,28.685,53,21.25,53z M40,36.63c0,1.654-1.346,3-3,3H5c-1.654,0-3-1.346-3-3v-2c0-1.654,1.346-3,3-3h32
				c1.654,0,3,1.346,3,3V36.63z M27.601,32.931h-0.759c-0.828,0-1.5,0.672-1.5,1.5v1.976c0,0.828,0.672,1.5,1.5,1.5h0.759
				c0.828,0,1.5-0.672,1.5-1.5v-1.976C29.101,33.602,28.429,32.931,27.601,32.931z M16.109,32.931H15.35c-0.828,0-1.5,0.672-1.5,1.5
				v1.976c0,0.828,0.672,1.5,1.5,1.5h0.759c0.828,0,1.5-0.672,1.5-1.5v-1.976C17.609,33.602,16.937,32.931,16.109,32.931z"/>
		</g>
	</g>
	<path style="fill-rule:evenodd;clip-rule:evenodd;fill:#FFFFFF;" d="M37,9h2c0.552,0,1,0.448,1,1c0,0.552-0.448,1-1,1h-2
		c-0.552,0-1-0.448-1-1C36,9.448,36.448,9,37,9z"/>
	<path style="fill:#171D2E;" d="M39,9h-2c-0.552,0-1,0.448-1,1c0,0.552,0.448,1,1,1h2c0.552,0,1-0.448,1-1C40,9.448,39.552,9,39,9
		L39,9z"/>
	<path style="fill-rule:evenodd;clip-rule:evenodd;fill:#FFFFFF;" d="M37,5h8c0.552,0,1,0.448,1,1s-0.448,1-1,1h-8
		c-0.552,0-1-0.448-1-1S36.448,5,37,5z"/>
	<path style="fill:#171D2E;" d="M45,5h-8c-0.552,0-1,0.448-1,1s0.448,1,1,1h8c0.552,0,1-0.448,1-1S45.552,5,45,5L45,5z"/>
</g>
</svg>
