<?xml version="1.0" encoding="utf-8"?>
<!-- Generator: Adobe Illustrator 24.0.1, SVG Export Plug-In . SVG Version: 6.00 Build 0)  -->
<svg version="1.1" id="图层_1" xmlns="http://www.w3.org/2000/svg" xmlns:xlink="http://www.w3.org/1999/xlink" x="0px" y="0px"
	 width="55px" height="55px" viewBox="0 0 55 55" style="enable-background:new 0 0 55 55;" xml:space="preserve">
<g>
	<path style="fill:#171D2E;" d="M46,3H9C5.686,3,3,5.686,3,9v27c0,3.314,2.686,6,6,6h18v5h-5c-0.552,0-1,0.448-1,1
		c0,0.552,0.448,1,1,1h12c0.552,0,1-0.448,1-1c0-0.552-0.448-1-1-1h-5v-5h17c3.314,0,6-2.686,6-6V9C52,5.686,49.314,3,46,3z M50,36
		c0,2.206-1.794,4-4,4H9c-2.206,0-4-1.794-4-4V9c0-2.206,1.794-4,4-4h37c2.206,0,4,1.794,4,4V36z"/>
	<g>
		<path style="fill-rule:evenodd;clip-rule:evenodd;fill:#171D2E;" d="M36.78,32h6.439c0.552,0,1,0.448,1,1c0,0.552-0.448,1-1,1
			H36.78c-0.552,0-1-0.448-1-1C35.78,32.448,36.228,32,36.78,32z"/>
	</g>
	<path style="fill-rule:evenodd;clip-rule:evenodd;fill:#FC4B1B;" d="M16,15h20c1.105,0,2,0.895,2,2v1c0,1.105-0.895,2-2,2H16
		c-1.105,0-2-0.895-2-2v-1C14,15.895,14.895,15,16,15z"/>
	<g>
		<path style="fill-rule:evenodd;clip-rule:evenodd;fill:#171D2E;" d="M32,26h12c0.552,0,1,0.448,1,1s-0.448,1-1,1H32
			c-0.552,0-1-0.448-1-1S31.448,26,32,26z"/>
	</g>
	<g>
		<path style="fill-rule:evenodd;clip-rule:evenodd;fill:#171D2E;" d="M10,10h2v2h-2V10z"/>
	</g>
	<g>
		<path style="fill-rule:evenodd;clip-rule:evenodd;fill:#171D2E;" d="M15,10h18c0.552,0,1,0.448,1,1c0,0.552-0.448,1-1,1H15
			c-0.552,0-1-0.448-1-1C14,10.448,14.448,10,15,10z"/>
	</g>
</g>
</svg>
