<?xml version="1.0" encoding="utf-8"?>
<!-- Generator: Adobe Illustrator 24.0.1, SVG Export Plug-In . SVG Version: 6.00 Build 0)  -->
<svg version="1.1" id="图层_2" xmlns="http://www.w3.org/2000/svg" xmlns:xlink="http://www.w3.org/1999/xlink" x="0px" y="0px"
	 width="1024px" height="1024px" viewBox="0 0 1024 1024" style="enable-background:new 0 0 1024 1024;" xml:space="preserve">
<path style="fill:#888888;" d="M867.865,111.992c-0.003,0-0.005,0-0.008,0H156.151c-24.375-0.009-44.142,19.743-44.151,44.118
	c0,0.011,0,0.021,0,0.032v711.698c0,24.384,19.767,44.151,44.151,44.151h383.15v-309.79H435.05V481.463h104.243V392.42
	c0-103.333,63.111-159.601,155.293-159.601c44.159,0,82.103,3.285,93.157,4.75v108.003l-63.924,0.024
	c-50.133,0-59.834,23.822-59.834,58.771v77.087H783.54l-15.563,120.739H663.993v309.798h203.864
	c24.379-0.009,44.139-19.772,44.143-44.151V156.143C912.004,131.764,892.245,111.996,867.865,111.992z"/>
</svg>
