<?xml version="1.0" encoding="utf-8"?>
<!-- Generator: Adobe Illustrator 24.0.1, SVG Export Plug-In . SVG Version: 6.00 Build 0)  -->
<svg version="1.1" id="图层_2" xmlns="http://www.w3.org/2000/svg" xmlns:xlink="http://www.w3.org/1999/xlink" x="0px" y="0px"
	 width="1024px" height="1024px" viewBox="0 0 1024 1024" shape-rendering="geometricPrecision" style="enable-background:new 0 0 1024 1024;" xml:space="preserve">
<path fill="#171d2e" d="M511.5,63.5c-247.424,0-448,200.576-448,448s200.576,448,448,448s448-200.576,448-448S758.924,63.5,511.5,63.5z
	 M239.971,239.971c33.488-33.488,72.195-60.125,115.131-79.283c-16.231,35.728-29.92,74.239-40.915,115.217
	c-2.72,10.138-5.251,20.368-7.606,30.676c-10.309,2.355-20.537,4.886-30.676,7.606c-40.979,10.995-79.488,24.683-115.217,40.914
	C179.846,312.166,206.483,273.459,239.971,239.971z M137.805,422.634c47.188-26.471,100.601-47.391,158.265-62.236
	c-6.794,41.684-10.726,84.496-11.747,128.102H128.176C129.483,466.167,132.701,444.174,137.805,422.634z M128.433,538.5h155.999
	c1.162,42.224,5.053,83.694,11.638,124.102c-57.664-14.844-111.076-35.765-158.265-62.236
	C133.006,580.113,129.876,559.46,128.433,538.5z M239.971,783.029c-33.487-33.488-60.125-72.195-79.283-115.131
	c35.729,16.231,74.238,29.919,115.217,40.914c10.139,2.72,20.367,5.251,30.676,7.606c2.355,10.309,4.887,20.538,7.606,30.676
	c10.995,40.978,24.684,79.489,40.915,115.217C312.166,843.154,273.459,816.517,239.971,783.029z M486.5,894.703
	c-21.646-1.379-42.969-4.557-63.866-9.508c-26.472-47.189-47.392-100.601-62.236-158.265c41.046,6.689,83.188,10.6,126.103,11.692
	V894.703z M486.5,688.593c-47.367-1.264-93.545-6.115-137.748-14.345c-8.115-43.582-12.954-89.08-14.299-135.748H486.5V688.593z
	 M486.5,488.5H334.361c1.179-48.066,6.044-94.923,14.391-139.748c44.203-8.23,90.381-13.081,137.748-14.345V488.5z M486.5,284.377
	c-42.914,1.093-85.057,5.003-126.103,11.692c14.845-57.665,35.765-111.077,62.236-158.265c20.897-4.951,42.22-8.129,63.866-9.508
	V284.377z M894.824,488.5H738.678c-1.021-43.606-4.953-86.418-11.747-128.102c57.664,14.844,111.076,35.765,158.265,62.236
	C890.299,444.174,893.517,466.167,894.824,488.5z M783.029,239.971c33.487,33.488,60.125,72.195,79.283,115.131
	c-35.729-16.231-74.24-29.919-115.218-40.915c-10.138-2.72-20.367-5.251-30.675-7.606c-2.355-10.309-4.887-20.538-7.606-30.677
	c-10.995-40.978-24.684-79.489-40.915-115.217C710.834,179.846,749.541,206.483,783.029,239.971z M536.5,128.297
	c21.646,1.379,42.969,4.557,63.866,9.508c26.472,47.188,47.392,100.601,62.236,158.265c-41.046-6.689-83.188-10.6-126.103-11.692
	V128.297z M536.5,334.407c47.367,1.264,93.545,6.115,137.748,14.345c8.347,44.825,13.212,91.682,14.391,139.748H536.5V334.407z
	 M536.5,538.5h152.047c-1.345,46.667-6.184,92.166-14.299,135.748c-44.203,8.23-90.381,13.081-137.748,14.345V538.5z
	 M600.366,885.195c-20.897,4.951-42.22,8.129-63.866,9.508V738.623c42.914-1.093,85.057-5.003,126.103-11.692
	C647.758,784.594,626.838,838.007,600.366,885.195z M783.029,783.029c-33.488,33.488-72.195,60.125-115.131,79.284
	c16.231-35.728,29.92-74.239,40.915-115.217c2.72-10.139,5.251-20.368,7.606-30.677c10.308-2.354,20.537-4.886,30.675-7.606
	c40.978-10.995,79.489-24.683,115.218-40.915C843.154,710.834,816.517,749.541,783.029,783.029z M885.195,600.366
	c-47.188,26.471-100.601,47.391-158.265,62.236c6.585-40.407,10.476-81.878,11.638-124.102h155.999
	C893.124,559.459,889.994,580.113,885.195,600.366z"/>
</svg>
