<svg xmlns="http://www.w3.org/2000/svg" xmlns:xlink="http://www.w3.org/1999/xlink" width="1024" height="1024" viewBox="0 0 1024 1024">
  <defs>
    <radialGradient id="a" data-name="未命名的渐变 16" cx="352.017" cy="953.469" r="844.095" gradientTransform="matrix(-0.195, -0.981, 1.351, -0.268, -867.241, 1554.18)" gradientUnits="userSpaceOnUse">
      <stop offset="0" stop-color="#fd5"/>
      <stop offset="0.1" stop-color="#fd5"/>
      <stop offset="0.5" stop-color="#ff543e"/>
      <stop offset="0.816" stop-color="#c837ab"/>
      <stop offset="1" stop-color="#7c3fca"/>
    </radialGradient>
  </defs>
  <title>面型</title>
  <path d="M511.944,409.654A102.381,102.381,0,1,0,614.325,512.035,102.378,102.378,0,0,0,511.944,409.654Zm239.417-78.775a101.771,101.771,0,0,0-58.28-58.293c-10.827-4.2-27.08-9.208-57.026-10.577-32.384-1.472-42.1-1.767-124.111-1.767-10.251,0-19.376-.013-27.553,0v-.076c-57.244.063-68.224.447-96.558,1.728-29.947,1.376-46.206,6.366-57.033,10.589a101.795,101.795,0,0,0-58.306,58.306c-4.2,10.827-9.207,27.08-10.577,57.026-1.471,32.378-1.766,42.053-1.766,124.073s.3,91.746,1.766,124.124c1.363,29.946,6.374,46.2,10.577,57.013A101.764,101.764,0,0,0,330.8,751.3c10.833,4.2,27.086,9.208,57.033,10.59,32.378,1.471,42.1,1.792,124.111,1.792s91.733-.321,124.111-1.792c29.946-1.369,46.212-6.361,57.026-10.583a101.851,101.851,0,0,0,58.28-58.255c4.2-10.815,9.208-27.068,10.577-57.014,1.472-32.378,1.792-42.1,1.792-124.072s-.32-91.695-1.792-124.072C760.575,357.945,755.565,341.692,751.361,330.879ZM511.944,669.733a157.714,157.714,0,1,1,157.7-157.7A157.71,157.71,0,0,1,511.944,669.733ZM676,385a37,37,0,1,1,37-37A37,37,0,0,1,676,385ZM927.181,276.38c-2.624-33.4-8.35-55.861-20.009-79.6A164.88,164.88,0,0,0,871.563,148c-27.522-26.286-61.179-42.283-101.287-48.068-19.433-2.809-23.3-3.641-122.742-3.814h-135.4c-173.676,0-224.47.18-234.343,1-35.642,2.963-57.82,8.575-81.982,20.6a166.081,166.081,0,0,0-47.8,34.988Q108.42,193.8,99.829,253.882c-2.815,19.452-3.634,23.42-3.8,122.78-.064,33.12,0,76.709,0,135.175,0,173.535.192,224.277,1.024,234.132,2.88,34.681,8.319,56.5,19.836,80.369,22.012,45.687,64.052,79.984,113.579,92.782,17.149,4.415,36.089,6.847,60.405,8,10.3.447,115.306.768,220.374.768s210.137-.128,220.183-.64c28.155-1.325,44.5-3.519,62.58-8.19a174.184,174.184,0,0,0,113.579-92.975c11.294-23.292,17.021-45.943,19.612-78.814.563-7.166.8-121.43.8-235.539C928,397.6,927.744,283.547,927.181,276.38ZM817.2,638.654c-1.535,32.686-6.718,55.011-14.269,74.546a157.362,157.362,0,0,1-89.82,89.853c-19.542,7.594-41.886,12.771-74.584,14.269-32.762,1.491-43.2,1.856-126.619,1.856s-93.871-.365-126.633-1.856c-32.691-1.5-55.017-6.675-74.559-14.269A157.174,157.174,0,0,1,220.9,713.194c-7.589-19.529-12.766-41.848-14.269-74.546-1.485-32.761-1.856-43.2-1.856-126.613s.384-93.889,1.849-126.651c1.472-32.685,6.655-55.011,14.27-74.546a157.116,157.116,0,0,1,89.858-89.82c19.529-7.595,41.848-12.772,74.546-14.269,32.755-1.491,43.227-1.856,126.6-1.856,83.4,0,93.829.365,126.584,1.856,32.7,1.5,55.03,6.674,74.61,14.269a157.143,157.143,0,0,1,89.839,89.826c7.551,19.529,12.734,41.848,14.269,74.547,1.472,32.761,1.856,43.229,1.856,126.644S818.67,605.893,817.2,638.654Z" style="fill: url(#a)"/>
</svg>
